<svg width="2594" height="1968" viewBox="0 0 2594 1968" fill="none" xmlns="http://www.w3.org/2000/svg">
<g clip-path="url(#clip0_32_458)" filter="url(#filter0_d_32_458)">
<rect width="2586" height="1960" transform="translate(4)" fill="#1A1445"/>
<g filter="url(#filter1_f_32_458)">
<circle cx="710" cy="688" r="317" fill="#CA75DF"/>
</g>
<g filter="url(#filter2_f_32_458)">
<circle cx="1981" cy="1352" r="253" fill="#CA75DF"/>
</g>
<path opacity="0.1" d="M1509 688C1509 1129.28 1151.28 1487 710 1487C268.724 1487 -89 1129.28 -89 688C-89 246.724 268.724 -111 710 -111C1151.28 -111 1509 246.724 1509 688ZM-81.9515 688C-81.9515 1125.38 272.617 1479.95 710 1479.95C1147.38 1479.95 1501.95 1125.38 1501.95 688C1501.95 250.617 1147.38 -103.952 710 -103.952C272.617 -103.952 -81.9515 250.617 -81.9515 688Z" fill="#CA75DF"/>
<path opacity="0.1" d="M2604 1352C2604 1696.07 2325.07 1975 1981 1975C1636.93 1975 1358 1696.07 1358 1352C1358 1007.93 1636.93 729 1981 729C2325.07 729 2604 1007.93 2604 1352ZM1363.5 1352C1363.5 1693.04 1639.96 1969.5 1981 1969.5C2322.04 1969.5 2598.5 1693.04 2598.5 1352C2598.5 1010.96 2322.04 734.496 1981 734.496C1639.96 734.496 1363.5 1010.96 1363.5 1352Z" fill="#CA75DF"/>
<path opacity="0.1" d="M1400 688C1400 1069.08 1091.08 1378 710 1378C328.924 1378 20 1069.08 20 688C20 306.924 328.924 -2 710 -2C1091.08 -2 1400 306.924 1400 688ZM26.0869 688C26.0869 1065.71 332.285 1371.91 710 1371.91C1087.71 1371.91 1393.91 1065.71 1393.91 688C1393.91 310.285 1087.71 4.08691 710 4.08691C332.285 4.08691 26.0869 310.285 26.0869 688Z" fill="#CA75DF"/>
<path opacity="0.1" d="M2519 1352C2519 1649.13 2278.13 1890 1981 1890C1683.87 1890 1443 1649.13 1443 1352C1443 1054.87 1683.87 814 1981 814C2278.13 814 2519 1054.87 2519 1352ZM1447.75 1352C1447.75 1646.51 1686.49 1885.25 1981 1885.25C2275.51 1885.25 2514.25 1646.51 2514.25 1352C2514.25 1057.49 2275.51 818.746 1981 818.746C1686.49 818.746 1447.75 1057.49 1447.75 1352Z" fill="#CA75DF"/>
<path opacity="0.1" d="M1295 688C1295 1011.09 1033.09 1273 710 1273C386.913 1273 125 1011.09 125 688C125 364.913 386.913 103 710 103C1033.09 103 1295 364.913 1295 688ZM130.161 688C130.161 1008.24 389.764 1267.84 710 1267.84C1030.24 1267.84 1289.84 1008.24 1289.84 688C1289.84 367.764 1030.24 108.161 710 108.161C389.764 108.161 130.161 367.764 130.161 688Z" fill="#CA75DF"/>
<path opacity="0.1" d="M2437 1352C2437 1603.84 2232.84 1808 1981 1808C1729.16 1808 1525 1603.84 1525 1352C1525 1100.16 1729.16 896 1981 896C2232.84 896 2437 1100.16 2437 1352ZM1529.02 1352C1529.02 1601.62 1731.38 1803.98 1981 1803.98C2230.62 1803.98 2432.98 1601.62 2432.98 1352C2432.98 1102.38 2230.62 900.023 1981 900.023C1731.38 900.023 1529.02 1102.38 1529.02 1352Z" fill="#CA75DF"/>
<rect x="106" y="1729" width="76" height="76" fill="#CA75DF" fill-opacity="0.3"/>
<rect x="2467" y="494" width="76" height="76" fill="#CA75DF" fill-opacity="0.3"/>
<rect x="59" y="1538" width="76" height="76" fill="#CA75DF" fill-opacity="0.3"/>
<rect x="2420" y="303" width="76" height="76" fill="#CA75DF" fill-opacity="0.3"/>
<rect x="1996" y="47" width="76" height="76" fill="#CA75DF" fill-opacity="0.3"/>
<circle cx="101.5" cy="1724.5" r="42.5" fill="#1A1445"/>
<circle cx="2462.5" cy="489.5" r="42.5" fill="#1A1445"/>
<circle cx="54.5" cy="1533.5" r="42.5" fill="#1A1445"/>
<circle cx="2415.5" cy="298.5" r="42.5" fill="#1A1445"/>
<circle cx="1991.5" cy="42.5" r="42.5" fill="#1A1445"/>
<circle cx="186.5" cy="1724.5" r="42.5" fill="#1A1445"/>
<circle cx="2547.5" cy="489.5" r="42.5" fill="#1A1445"/>
<circle cx="139.5" cy="1533.5" r="42.5" fill="#1A1445"/>
<circle cx="2500.5" cy="298.5" r="42.5" fill="#1A1445"/>
<circle cx="2076.5" cy="42.5" r="42.5" fill="#1A1445"/>
<circle cx="101.5" cy="1809.5" r="42.5" fill="#1A1445"/>
<circle cx="2462.5" cy="574.5" r="42.5" fill="#1A1445"/>
<circle cx="54.5" cy="1618.5" r="42.5" fill="#1A1445"/>
<circle cx="2415.5" cy="383.5" r="42.5" fill="#1A1445"/>
<circle cx="1991.5" cy="127.5" r="42.5" fill="#1A1445"/>
<circle cx="186.5" cy="1809.5" r="42.5" fill="#1A1445"/>
<circle cx="2547.5" cy="574.5" r="42.5" fill="#1A1445"/>
<circle cx="139.5" cy="1618.5" r="42.5" fill="#1A1445"/>
<circle cx="2500.5" cy="383.5" r="42.5" fill="#1A1445"/>
<circle cx="2076.5" cy="127.5" r="42.5" fill="#1A1445"/>
</g>
<defs>
<filter id="filter0_d_32_458" x="0" y="0" width="2594" height="1968" filterUnits="userSpaceOnUse" color-interpolation-filters="sRGB">
<feFlood flood-opacity="0" result="BackgroundImageFix"/>
<feColorMatrix in="SourceAlpha" type="matrix" values="0 0 0 0 0 0 0 0 0 0 0 0 0 0 0 0 0 0 127 0" result="hardAlpha"/>
<feOffset dy="4"/>
<feGaussianBlur stdDeviation="2"/>
<feComposite in2="hardAlpha" operator="out"/>
<feColorMatrix type="matrix" values="0 0 0 0 0 0 0 0 0 0 0 0 0 0 0 0 0 0 0.25 0"/>
<feBlend mode="normal" in2="BackgroundImageFix" result="effect1_dropShadow_32_458"/>
<feBlend mode="normal" in="SourceGraphic" in2="effect1_dropShadow_32_458" result="shape"/>
</filter>
<filter id="filter1_f_32_458" x="93" y="71" width="1234" height="1234" filterUnits="userSpaceOnUse" color-interpolation-filters="sRGB">
<feFlood flood-opacity="0" result="BackgroundImageFix"/>
<feBlend mode="normal" in="SourceGraphic" in2="BackgroundImageFix" result="shape"/>
<feGaussianBlur stdDeviation="150" result="effect1_foregroundBlur_32_458"/>
</filter>
<filter id="filter2_f_32_458" x="1428" y="799" width="1106" height="1106" filterUnits="userSpaceOnUse" color-interpolation-filters="sRGB">
<feFlood flood-opacity="0" result="BackgroundImageFix"/>
<feBlend mode="normal" in="SourceGraphic" in2="BackgroundImageFix" result="shape"/>
<feGaussianBlur stdDeviation="150" result="effect1_foregroundBlur_32_458"/>
</filter>
<clipPath id="clip0_32_458">
<rect width="2586" height="1960" fill="white" transform="translate(4)"/>
</clipPath>
</defs>
</svg>
